<svg width="1024" height="1024" viewBox="0 0 1024 1024" fill="none" xmlns="http://www.w3.org/2000/svg">
<path d="M754.752 480H160C151.513 480 143.374 483.371 137.373 489.373C131.371 495.374 128 503.513 128 512C128 520.487 131.371 528.626 137.373 534.627C143.374 540.629 151.513 544 160 544H754.752L521.344 777.344C515.335 783.353 511.96 791.502 511.96 800C511.96 808.498 515.335 816.647 521.344 822.656C527.353 828.665 535.502 832.04 544 832.04C552.498 832.04 560.647 828.665 566.656 822.656L854.656 534.656C857.636 531.683 860 528.152 861.614 524.265C863.227 520.377 864.057 516.209 864.057 512C864.057 507.791 863.227 503.623 861.614 499.735C860 495.848 857.636 492.317 854.656 489.344L566.656 201.344C560.647 195.335 552.498 191.96 544 191.96C535.502 191.96 527.353 195.335 521.344 201.344C515.335 207.353 511.96 215.502 511.96 224C511.96 232.498 515.335 240.647 521.344 246.656L754.752 480Z" fill="#FF3946"/>
</svg>
